<svg width="142" height="21" viewBox="0 0 142 21" fill="none" xmlns="http://www.w3.org/2000/svg">
<path d="M29.656 0.3282L23.7551 20.7369H18.762L14.7978 6.20519L10.652 20.7369L5.68912 20.7661L0 0.3282C0 0.3282 2.81879 -0.0846459 4.53919 0.3282C10.9136 1.85788 1.69683 15.9657 8.26132 16.1756C14.8791 16.3872 6.13712 1.88911 12.5584 0.3282C14.3463 -0.106397 15.4929 -0.112393 17.2792 0.3282C23.6389 1.89684 14.7715 16.1992 21.3342 16.0879C27.8693 15.9771 18.7467 1.86404 25.0866 0.3282C26.8175 -0.0911102 29.656 0.3282 29.656 0.3282Z" fill="white"/>
<path d="M30.7277 12.5792C30.7277 10.9419 31.0606 9.48968 31.7263 8.22266C32.4123 6.95565 33.3302 5.98103 34.4801 5.29879C35.6502 4.61655 36.9514 4.27543 38.3838 4.27543C39.6346 4.27543 40.724 4.51909 41.652 5.0064C42.6002 5.49371 43.3567 6.10773 43.9216 6.84844C43.9216 6.84844 43.4653 5.32554 43.9216 4.53858C44.7361 3.13402 48.1884 4.53858 48.1884 4.53858V20.7369H43.9216V18.3685C43.3769 19.1287 42.6204 19.7622 41.652 20.269C40.7038 20.7563 39.6043 21 38.3535 21C36.9414 21 35.6502 20.6491 34.4801 19.9474C33.3302 19.2457 32.4123 18.2613 31.7263 16.9943C31.0606 15.7078 30.7277 14.2361 30.7277 12.5792ZM43.9216 12.6377C43.9216 12.6377 43.7199 10.7957 43.3164 10.0939C42.9129 9.37272 42.3682 8.82693 41.6823 8.45657C40.9964 8.06672 40.26 7.8718 39.4732 7.8718C38.6864 7.8718 37.9601 8.05698 37.2944 8.42733C36.6287 8.79769 36.084 9.34348 35.6603 10.0647C35.2568 10.7664 35.0551 12.5792 35.0551 12.5792C35.0551 12.5792 35.2568 14.4115 35.6603 15.1522C36.084 15.8735 36.6287 16.429 37.2944 16.8189C37.9803 17.2087 38.7066 17.4036 39.4732 17.4036C40.26 17.4036 40.9964 17.2185 41.6823 16.8481C42.3682 16.4582 42.9129 15.9125 43.3164 15.2107C43.7199 14.4895 43.9216 12.6377 43.9216 12.6377Z" fill="white"/>
<path d="M58.7113 16.9651C63.9994 16.9651 57.8643 5.94547 62.9479 4.53858C64.6407 4.0701 67.4568 4.53858 67.4568 4.53858L61.2533 20.7369H56.1089L49.9356 4.53858C49.9356 4.53858 52.7714 4.06431 54.4748 4.53858C59.556 5.95336 53.4233 16.9651 58.7113 16.9651Z" fill="white"/>
<path d="M84.8157 12.2868C84.8157 12.8716 84.7753 13.3979 84.6946 13.8657C84.6139 14.3336 72.338 12.6962 72.4388 13.8657C72.5397 15.0353 72.9634 15.9514 73.7098 16.6142C74.4563 17.2769 75.3742 17.6083 76.4636 17.6083C78.0372 17.6083 79.1568 16.9553 79.8226 15.6493C80.4883 14.3433 84.392 15.6493 84.392 15.6493C83.9078 17.2087 82.9798 18.4952 81.608 19.5088C80.2361 20.5029 78.5516 21 76.5544 21C74.9404 21 73.4879 20.6589 72.1967 19.9766C70.9258 19.2749 69.9271 18.2905 69.2009 17.0235C68.4948 15.7565 68.1417 14.2946 68.1417 12.6377C68.1417 10.9614 68.4948 9.48968 69.2009 8.22266C69.907 6.95565 70.8955 5.98103 72.1665 5.29879C73.4375 4.61655 74.9001 4.27543 76.5544 4.27543C78.1481 4.27543 79.5704 4.6068 80.8212 5.26955C82.0922 5.93229 83.0706 6.87768 83.7565 8.10571C84.4626 9.31424 84.8157 10.708 84.8157 12.2868ZM80.4278 11.1173C80.4076 10.0647 80.0142 9.22653 79.2476 8.60277C78.481 7.95951 77.5429 7.63789 76.4333 7.63789C75.3843 7.63789 74.4966 7.94977 73.7703 8.57353C73.0642 9.1778 72.6305 10.0257 72.4691 11.1173C72.4691 11.1173 80.448 12.1699 80.4278 11.1173Z" fill="white"/>
<path d="M93.7182 21C92.3463 21 91.1157 20.7661 90.0263 20.2983C88.9369 19.811 88.0694 19.158 87.4238 18.3393C86.7984 17.5206 86.4555 16.6142 86.3949 15.6201C86.3344 14.6259 90.5811 14.9963 90.6618 15.6201C90.7425 16.2438 91.0552 16.7604 91.5999 17.1697C92.1648 17.5791 93.6879 17.7837 93.6879 17.7837C93.6879 17.7837 95.1203 17.6278 95.5641 17.3159C96.0281 17.004 96.2601 16.6044 96.2601 16.1171C96.2601 15.5908 95.4128 14.9476 95.4128 14.9476L92.7801 14.0704C92.7801 14.0704 90.5004 13.4759 89.6934 13.164C88.9066 12.8521 88.2207 12.3746 87.6357 11.7313C87.0708 11.0881 86.7883 10.2206 86.7883 9.12907C86.7883 8.23241 87.0506 7.41372 87.5751 6.67301C88.1198 5.93229 88.8865 5.34752 89.875 4.91868C90.8837 4.48985 92.0639 4.27543 93.4156 4.27543C95.4128 4.27543 97.0066 4.76274 98.1968 5.73737C99.3871 6.6925 100.043 7.98875 100.164 9.62612C100.285 11.2635 96.1693 10.2694 96.1088 9.62612C96.0483 8.98287 95.7659 8.47607 95.2615 8.10571C94.7773 7.71586 93.2945 7.52093 93.2945 7.52093C93.2945 7.52093 91.9328 7.65738 91.5091 7.93027C91.1056 8.20317 90.9039 8.58327 90.9039 9.07059C90.9039 9.61638 91.1863 10.0355 91.7512 10.3279C92.3161 10.6007 94.3839 11.1758 94.3839 11.1758C94.3839 11.1758 96.593 11.7703 97.3798 12.0822C98.1666 12.3941 98.8424 12.8814 99.4073 13.5441C99.9923 14.1874 100.295 15.045 100.315 16.1171C100.315 17.0528 100.043 17.8909 99.4981 18.6317C98.9735 19.3724 98.2069 19.9572 97.1982 20.386C96.2097 20.7953 95.0497 21 93.7182 21Z" fill="white"/>
<path d="M102.159 10.5033C102.159 8.33763 102.623 6.70225 103.551 5.12335C104.499 3.52497 105.78 2.2872 107.394 1.41003C109.028 0.513379 110.854 0.0650511 112.871 0.0650511C115.232 0.0650511 117.299 0.649827 119.075 1.81938C120.85 2.98893 122.091 4.6068 122.797 6.67301C123.503 8.73921 118.409 7.64763 117.925 6.67301C117.441 5.69838 116.755 4.96741 115.867 4.4801C115 3.99279 113.991 3.74913 112.841 3.74913C111.61 3.74913 110.511 4.03177 109.542 4.59706C108.594 5.14285 107.848 5.92255 107.303 6.93616C106.779 7.94977 106.516 10.5033 106.516 10.5033C106.516 10.5033 106.779 13.0373 107.303 14.0704C107.848 15.084 108.594 15.8735 109.542 16.4388C110.511 16.9845 111.61 17.2574 112.841 17.2574C113.991 17.2574 115 17.0138 115.867 16.5265C116.755 16.0197 117.441 15.2789 117.925 14.3043C118.409 13.3297 123.503 12.2186 122.797 14.3043C122.091 16.39 120.85 18.0176 119.075 19.1872C117.32 20.3373 115.252 20.9123 112.871 20.9123C110.854 20.9123 109.028 20.4737 107.394 19.5965C105.78 18.6999 104.499 17.4621 103.551 15.8832C102.623 14.3043 102.159 12.6689 102.159 10.5033Z" fill="white"/>
<path d="M133.254 21C131.641 21 130.188 20.6589 128.897 19.9766C127.606 19.2749 126.587 18.2905 125.84 17.0235C125.114 15.7565 124.751 14.2946 124.751 12.6377C124.751 10.9809 125.124 9.51892 125.871 8.2519C126.637 6.98489 127.676 6.01026 128.988 5.32803C130.299 4.6263 131.762 4.27543 133.376 4.27543C134.989 4.27543 136.452 4.6263 137.763 5.32803C139.075 6.01026 140.104 6.98489 140.85 8.2519C141.617 9.51892 142 10.9809 142 12.6377C142 14.2946 141.607 15.7565 140.82 17.0235C140.053 18.2905 139.004 19.2749 137.673 19.9766C136.361 20.6589 134.889 21 133.254 21ZM133.254 17.4329C133.254 17.4329 134.737 17.2574 135.403 16.9066C136.089 16.5362 136.634 15.9904 137.037 15.2692C137.441 14.548 137.642 12.6377 137.642 12.6377C137.642 12.6377 137.219 9.91851 136.371 9.09982C135.544 8.26165 133.315 7.84256 133.315 7.84256C133.315 7.84256 131.086 8.26165 130.259 9.09982C129.452 9.91851 129.048 12.6377 129.048 12.6377C129.048 12.6377 129.442 15.3667 130.228 16.2048C131.035 17.0235 133.254 17.4329 133.254 17.4329Z" fill="white"/>
</svg>
